{"title":"The Fall S01","uid":10321279,"size":3290002721,"categoryP":"video","categoryS":"tv_shows","magnet":"?xt=urn:btih:a311a21f8d96339ccd72f549cdced1b76e5f37ba&amp;dn=The+Fall+S01&amp;tr=udp%3A%2F%2Ftracker.openbittorrent.com%3A80&amp;tr=udp%3A%2F%2Fopen.demonii.com%3A1337&amp;tr=udp%3A%2F%2Ftracker.coppersurfer.tk%3A6969&amp;tr=udp%3A%2F%2Fexodus.desync.com%3A6969","seeders":26,"leechers":4,"uploader":"RedBaron58","files":5,"time":1402310887,"description":"The Fall Season 1 x264 mp4\n  &lt;a href=&quot;\nhttp://www.imdb.com/title/tt2294189/&quot; rel=&quot;nofollow&quot; target=&quot;_NEW&quot;&gt;\nhttp://www.imdb.com/title/tt2294189/&lt;/a&gt;\n\n\nThank you for your kind comments and thumbs ups on my other torrents, your feedback is welcome.\n\n\nAbout the Series:\nThe Fall is a crime drama that follows an investigation into a series of murders involving young business \nwomen in Belfast, Northern Ireland. Superintendent Detective Stella Gibson (played by Gillian Anderson ) \nheading up a group of local detectives determined to track down a serial killer by the name of \nPaul Spector ( Jamie Dornan ) before he has a chance to strike again.\n\n\nI hope you enjoy.\n\n\nTechnical: (All Episodes encoded to the same settings)\n\nGeneral\nComplete name                            : G:The Fall S01The Fall S01E01 Dark Descent x264 RB58.mp4\nFormat                                   : MPEG-4\nFormat profile                           : Base Media / Version 2\nCodec ID                                 : mp42\nFile size                                : 633 MiB\nDuration                                 : 59mn 5s\nOverall bit rate mode                    : Variable\nOverall bit rate                         : 1 498 Kbps\nEncoded date                             : UTC 2014-06-07 16:58:06\nTagged date                              : UTC 2014-06-07 17:21:18\nWriting application                      : HandBrake 0.9.8 2012071700\n\nVideo\nID                                       : 1\nFormat                                   : AVC\nFormat/Info                              : Advanced Video Codec\nFormat profile                           : &lt;a class=&quot;__cf_email__&quot; href=&quot;/cdn-cgi/l/email-protection&quot; data-cfemail=&quot;89c4e8e0e7c9c5baa7b9&quot;&gt;[email&amp;#160;protected]&lt;/a&gt;&lt;script cf-hash='f9e31' type=&quot;text/javascript&quot;&gt;\n/* &lt;![CDATA[ */!function(){try{var t=&quot;currentScript&quot;in document?document.currentScript:function(){for(var t=document.getElementsByTagName(&quot;script&quot;),e=t.length;e--;)if(t[e].getAttribute(&quot;cf-hash&quot;))return t[e]}();if(t&amp;&amp;t.previousSibling){var e,r,n,i,c=t.previousSibling,a=c.getAttribute(&quot;data-cfemail&quot;);if(a){for(e=&quot;&quot;,r=parseInt(a.substr(0,2),16),n=2;a.length-n;n+=2)i=parseInt(a.substr(n,2),16)^r,e+=String.fromCharCode(i);e=document.createTextNode(e),c.parentNode.replaceChild(e,c)}}}catch(u){}}();/* ]]&gt; */&lt;/script&gt;\nFormat settings, CABAC                   : Yes\nFormat settings, ReFrames                : 4 frames\nCodec ID                                 : avc1\nCodec ID/Info                            : Advanced Video Coding\nDuration                                 : 59mn 5s\nBit rate mode                            : Variable\nBit rate                                 : 1 400 Kbps\nWidth                                    : 832 pixels\nHeight                                   : 468 pixels\nDisplay aspect ratio                     : 16:9\nFrame rate mode                          : Constant\nFrame rate                               : 25.000 fps\nColor space                              : YUV\nChroma subsampling                       : 4:2:0\nBit depth                                : 8 bits\nScan type                                : Progressive\nBits/(Pixel*Frame)                       : 0.144\nStream size                              : 592 MiB (93%)\nWriting library                          : x264 core 120\nEncoding settings                        : cabac=1 / ref=1 / deblock=1:0:0 \nEncoded date                             : UTC 2014-06-07 16:58:06\nTagged date                              : UTC 2014-06-07 17:21:18\nColor primaries                          : BT.709\nTransfer characteristics                 : BT.709\nMatrix coefficients                      : BT.709\n\nAudio\nID                                       : 2\nFormat                                   : AAC\nFormat/Info                              : Advanced Audio Codec\nFormat profile                           : HE-AAC / LC\nCodec ID                                 : 40\nDuration                                 : 59mn 5s\nBit rate mode                            : Variable\nBit rate                                 : 96.0 Kbps\nChannel(s)                               : 2 channels\nChannel positions                        : Front: L R\nSampling rate                            : 48.0 KHz / 24.0 KHz\nCompression mode                         : Lossy\nDelay relative to video                  : 80ms\nStream size                              : 40.0 MiB (6%)\nEncoded date                             : UTC 2014-06-07 16:58:06\nTagged date                              : UTC 2014-06-07 17:21:17","torrent":{"xt":"urn:btih:a311a21f8d96339ccd72f549cdced1b76e5f37ba","amp;dn":"The+Fall+S01","amp;tr":["udp%3A%2F%2Ftracker.openbittorrent.com%3A80","udp%3A%2F%2Fopen.demonii.com%3A1337","udp%3A%2F%2Ftracker.coppersurfer.tk%3A6969","udp%3A%2F%2Fexodus.desync.com%3A6969"],"infoHash":"a311a21f8d96339ccd72f549cdced1b76e5f37ba","infoHashBuffer":{"type":"Buffer","data":[163,17,162,31,141,150,51,156,205,114,245,73,205,206,209,183,110,95,55,186]},"announce":[],"urlList":[]}}